<svg xmlns="http://www.w3.org/2000/svg" xmlns:xlink="http://www.w3.org/1999/xlink" xmlns:sketch="http://www.bohemiancoding.com/sketch/ns" viewBox="0 0 100 125" version="1.1" x="0px" y="0px"><title>eye-fill 73</title><desc>Created with Sketch.</desc><g stroke="none" stroke-width="1" fill="none" fill-rule="evenodd" sketch:type="MSPage"><path d="M80.45875,80.755 L68.0275,80.755 L68.0275,71.0125 L80.45875,71.0125 L80.45875,80.755 Z M51.925,71.0125 L64.2775,71.0125 L64.2775,80.755 L51.925,80.755 L51.925,71.0125 Z M35.8225,71.0125 L48.175,71.0125 L48.175,80.755 L35.8225,80.755 L35.8225,71.0125 Z M19.75,71.0125 L32.0725,71.0125 L32.0725,80.755 L19.75,80.755 L19.75,71.0125 Z M19.75,24.9325 L27.07,24.9325 C27.86875,27.9925 30.63625,30.2725 33.9475,30.2725 C37.25875,30.2725 40.0225,27.9925 40.825,24.9325 L59.275,24.9325 C60.0775,27.9925 62.84125,30.2725 66.1525,30.2725 C69.46375,30.2725 72.23125,27.9925 73.03375,24.9325 L80.45875,24.9325 L80.45875,38.86375 L19.75,38.86375 L19.75,24.9325 Z M30.56125,23.13625 C30.56125,22.39375 30.85,21.74125 31.25875,21.1825 C31.87375,20.335 32.8225,19.75 33.9475,19.75 C35.0725,19.75 36.02125,20.335 36.63625,21.1825 C37.045,21.74125 37.33375,22.39375 37.33375,23.13625 C37.33375,23.81125 37.08625,24.40375 36.745,24.9325 C36.14125,25.86625 35.14,26.5225 33.9475,26.5225 C32.755,26.5225 31.75375,25.86625 31.15,24.9325 C30.80875,24.40375 30.56125,23.81125 30.56125,23.13625 L30.56125,23.13625 Z M62.76625,23.13625 C62.76625,22.39375 63.055,21.74125 63.46375,21.1825 C64.07875,20.335 65.0275,19.75 66.1525,19.75 C67.2775,19.75 68.22625,20.335 68.84125,21.1825 C69.25,21.74125 69.53875,22.39375 69.53875,23.13625 C69.53875,23.81125 69.29125,24.40375 68.95,24.9325 C68.34625,25.86625 67.345,26.5225 66.1525,26.5225 C64.96,26.5225 63.95875,25.86625 63.355,24.9325 C63.0175,24.40375 62.76625,23.81125 62.76625,23.13625 L62.76625,23.13625 Z M68.0275,56.81125 L80.45875,56.81125 L80.45875,67.25875 L68.0275,67.25875 L68.0275,56.81125 Z M51.925,56.81125 L64.2775,56.81125 L64.2775,67.25875 L51.925,67.25875 L51.925,56.81125 Z M35.8225,56.81125 L48.175,56.81125 L48.175,67.25875 L35.8225,67.25875 L35.8225,56.81125 Z M19.75,56.81125 L32.0725,56.81125 L32.0725,67.25875 L19.75,67.25875 L19.75,56.81125 Z M32.0725,53.06125 L19.75,53.06125 L19.75,42.61375 L32.0725,42.61375 L32.0725,53.06125 Z M48.175,53.06125 L35.8225,53.06125 L35.8225,42.61375 L48.175,42.61375 L48.175,53.06125 Z M64.2775,53.06125 L51.925,53.06125 L51.925,42.61375 L64.2775,42.61375 L64.2775,53.06125 Z M80.45875,53.06125 L68.0275,53.06125 L68.0275,42.61375 L80.45875,42.61375 L80.45875,53.06125 Z M80.45875,21.1825 L72.98125,21.1825 C72.12625,18.20125 69.4075,16 66.1525,16 C62.90125,16 60.17875,18.20125 59.32375,21.1825 L40.77625,21.1825 C39.92125,18.20125 37.19875,16 33.9475,16 C30.6925,16 27.97375,18.20125 27.11875,21.1825 L19.75,21.1825 C17.68,21.1825 16,22.85875 16,24.9325 L16,80.755 C16,82.825 17.68,84.505 19.75,84.505 L80.45875,84.505 C82.52875,84.505 84.20875,82.825 84.20875,80.755 L84.20875,24.9325 C84.20875,22.85875 82.52875,21.1825 80.45875,21.1825 L80.45875,21.1825 Z" fill="#000000" sketch:type="MSShapeGroup"/></g><text x="0" y="115" fill="#000000" font-size="5px" font-weight="bold" font-family="'Helvetica Neue', Helvetica, Arial-Unicode, Arial, Sans-serif">Created by Icon Island</text><text x="0" y="120" fill="#000000" font-size="5px" font-weight="bold" font-family="'Helvetica Neue', Helvetica, Arial-Unicode, Arial, Sans-serif">from the Noun Project</text></svg>