<svg xmlns="http://www.w3.org/2000/svg" xmlns:xlink="http://www.w3.org/1999/xlink" version="1.1" x="0px" y="0px" viewBox="0 0 100 100" enable-background="new 0 0 100 100" xml:space="preserve"><g><path d="M30.9,69.3c-3.7,0-6.6,3-6.6,6.6c0,3.7,3,6.6,6.6,6.6s6.6-3,6.6-6.6C37.5,72.3,34.5,69.3,30.9,69.3z M30.9,81.3   c-3,0-5.4-2.4-5.4-5.4c0-3,2.4-5.4,5.4-5.4s5.4,2.4,5.4,5.4C36.2,78.9,33.8,81.3,30.9,81.3z"></path><path d="M74.8,69.3c-3.7,0-6.6,3-6.6,6.6c0,3.7,3,6.6,6.6,6.6c3.7,0,6.6-3,6.6-6.6C81.5,72.3,78.5,69.3,74.8,69.3z M74.8,81.3   c-3,0-5.4-2.4-5.4-5.4c0-3,2.4-5.4,5.4-5.4c3,0,5.4,2.4,5.4,5.4C80.2,78.9,77.8,81.3,74.8,81.3z"></path><path d="M89,51.5l-12.2-13c-0.7-0.7-1.6-1.1-2.6-1.1H63.9c-1.9,0-3.5,1.6-3.5,3.5V64H21.9c-1.5,0-2.7,1.2-2.7,2.7v3.1   c0,1.5,1.2,2.7,2.7,2.7h1.7c0.3,0,0.6-0.3,0.6-0.6s-0.3-0.6-0.6-0.6h-1.7c-0.8,0-1.5-0.7-1.5-1.5v-3.1c0-0.8,0.7-1.5,1.5-1.5h38.5   V69c0,0.9,0.3,1.7,0.8,2.3H38.7c-0.3,0-0.6,0.3-0.6,0.6s0.3,0.6,0.6,0.6h28.2c0.3,0,0.6-0.3,0.6-0.6s-0.3-0.6-0.6-0.6h-3.1   c-1.3,0-2.3-1-2.3-2.3V40.9c0-1.3,1-2.3,2.3-2.3h10.4c0.6,0,1.2,0.3,1.7,0.7l4,4.2h-9.6c-1.5,0-2.7,1.2-2.7,2.7v12.6   c0,1.5,1.2,2.7,2.7,2.7h18.4V69c0,1.3-1,2.3-2.3,2.3h-3.8c-0.3,0-0.6,0.3-0.6,0.6s0.3,0.6,0.6,0.6h3.8c1.9,0,3.5-1.6,3.5-3.5V53.9   C90,53,89.7,52.1,89,51.5z M70.3,60.3c-0.8,0-1.5-0.7-1.5-1.5V46.3c0-0.8,0.7-1.5,1.5-1.5h10.8l7,7.5c0.4,0.4,0.6,1,0.6,1.6v6.4   H70.3z"></path><path d="M38.9,61h16.6c1.2,0,2.2-1,2.2-2.2V32.1c1.1-0.3,2-1.4,2-2.6v-3.8c0-1.5-1.2-2.7-2.7-2.7H43.5l2.1-2.1   c0.9-0.9,0.9-2.3,0-3.2l-3.4-3.1c-0.4-0.4-1-0.7-1.6-0.7c-0.6,0-1.2,0.2-1.6,0.6l-4,3.8l-4-3.8c-0.4-0.4-1-0.7-1.6-0.7   c-0.6,0-1.2,0.2-1.6,0.6l-3.4,3.1c-0.9,0.9-0.9,2.3,0,3.2l2.1,2.1H12.8c-1.5,0-2.7,1.2-2.7,2.7v3.8c0,1.2,0.8,2.3,2,2.6v26.6   c0,1.2,1,2.2,2.2,2.2H31H38.9z M31.7,59.7V32.2h6.7v27.5H31.7z M56.5,58.7c0,0.5-0.4,1-1,1h-16V32.2h17V58.7z M25.3,20   c-0.4-0.4-0.4-1,0-1.4l3.4-3.1c0.4-0.4,1-0.4,1.4,0l4.5,4.2c0.2,0.2,0.6,0.2,0.9,0l4.5-4.2c0.4-0.4,1-0.4,1.4,0l3.4,3.1   c0.4,0.4,0.4,1,0,1.4l-2.9,2.9H28.2L25.3,20z M11.3,29.5v-3.8c0-0.8,0.7-1.5,1.5-1.5H28h14h15c0.8,0,1.5,0.7,1.5,1.5v3.8   c0,0.8-0.7,1.5-1.5,1.5H38.9H31H12.8C12,30.9,11.3,30.3,11.3,29.5z M13.3,58.7V32.2h17.1v27.5H14.3C13.7,59.7,13.3,59.3,13.3,58.7z   "></path></g></svg>