<svg xmlns="http://www.w3.org/2000/svg" xmlns:xlink="http://www.w3.org/1999/xlink" version="1.2" baseProfile="tiny" x="0px" y="0px" viewBox="0 0 56.693 56.693" xml:space="preserve"><g><path d="M52.966,26.059l-0.418-1.564l-1.615,0.146c-5.647,0.516-11.324,0.836-17.009,0.962c-1.493-1.306-3.442-2.104-5.579-2.104   s-4.087,0.799-5.582,2.105c-5.685-0.127-11.36-0.447-17.005-0.963L4.14,24.488l-0.416,1.57c-0.557,2.096-0.825,4.341-0.796,6.67   l0.018,1.994l1.21-0.058c0.121,1.317,0.337,2.621,0.672,3.882l0.17,0.637l0.656-0.062c4.255-0.39,8.537-0.645,12.829-0.81   l-3.072,3.076h5.355v5.357l6.063-6.071l0.288-0.285c0.4,0.059,0.81,0.095,1.228,0.095c0.414,0,0.82-0.036,1.219-0.094l6.357,6.355   v-5.357h5.363l-3.072-3.076c4.29,0.163,8.572,0.42,12.826,0.81l0.656,0.061l0.17-0.636c0.335-1.261,0.55-2.564,0.671-3.881   l1.21,0.057l0.021-1.997C53.79,30.38,53.521,28.137,52.966,26.059z M51.073,26.193l0.306-0.026l0.078,0.294   c0.52,1.941,0.771,4.044,0.75,6.248l-0.004,0.379L51.83,33.07c-4.985-0.237-10.012-0.39-15.023-0.477   c0.016-0.2,0.031-0.4,0.031-0.604c0-1.812-0.575-3.488-1.545-4.868C40.567,26.975,45.833,26.674,51.073,26.193z M5.232,26.459   l0.078-0.293l0.304,0.027c5.239,0.48,10.506,0.781,15.779,0.928c-0.971,1.38-1.546,3.057-1.546,4.868   c0,0.204,0.017,0.404,0.031,0.604c-5.01,0.087-10.034,0.239-15.019,0.476l-0.37,0.019l-0.003-0.376   C4.461,30.522,4.711,28.418,5.232,26.459z M6.178,37.508c-0.219-0.945-0.366-1.923-0.457-2.912   c4.788-0.22,9.608-0.363,14.417-0.445c0.166,0.631,0.407,1.231,0.706,1.797l-0.737,0.738C15.452,36.838,10.794,37.098,6.178,37.508   z M18.978,39.908l2.687-2.688c0.971,1.239,2.277,2.201,3.781,2.75l-3.202,3.204v-3.267H18.978z M27.141,38.893l-0.815-0.248   c-1.438-0.433-2.719-1.348-3.606-2.577l-0.533-0.73c-0.543-0.995-0.852-2.136-0.852-3.348c0-3.868,3.145-7.015,7.011-7.015   c3.868,0,7.016,3.146,7.016,7.015c0,1.206-0.307,2.341-0.844,3.334l-0.55,0.745c-0.882,1.227-2.161,2.142-3.604,2.576l-0.82,0.249   c-0.39,0.067-0.788,0.11-1.197,0.11C27.934,39.004,27.532,38.961,27.141,38.893z M35.023,37.218l2.686,2.69h-3.263v3.267   l-3.206-3.204C32.745,39.422,34.054,38.459,35.023,37.218z M50.514,37.508c-4.615-0.409-9.272-0.669-13.925-0.821l-0.743-0.745   c0.297-0.564,0.537-1.161,0.702-1.791c4.81,0.082,9.633,0.226,14.423,0.446C50.879,35.586,50.731,36.563,50.514,37.508z"></path><path d="M29.13,36.712c2.272-0.378,4.016-2.344,4.016-4.723c0-2.648-2.154-4.803-4.801-4.803c-2.648,0-4.804,2.154-4.804,4.803   c0,2.379,1.743,4.345,4.019,4.723c0.254,0.048,0.516,0.079,0.785,0.079S28.874,36.76,29.13,36.712z M25.021,31.989   c0-1.832,1.491-3.324,3.324-3.324c1.832,0,3.323,1.492,3.323,3.324s-1.491,3.323-3.323,3.323   C26.512,35.312,25.021,33.821,25.021,31.989z"></path></g></svg>