<svg xmlns="http://www.w3.org/2000/svg" xmlns:xlink="http://www.w3.org/1999/xlink" version="1.1" x="0px" y="0px" viewBox="0 0 100 100" enable-background="new 0 0 100 100" xml:space="preserve"><g><g><g><g><path d="M32.531,62.5"></path></g><path d="M63.039,39.081c-0.388-0.01-0.596-0.009-0.614-0.011v0.009L62.42,39.07c-1.344,0.008-12.831,0.064-16.337,3.56     c-0.781,0.778-1.193,1.719-1.193,2.72c0,0.407,0.006,0.792,0.011,1.178c0,0.006,0,0.012,0,0.018     c-3.537-0.462-6.808-0.479-7.477-0.476c-1.336-0.021-12.831,0.061-16.341,3.56c-0.781,0.778-1.193,1.719-1.193,2.72     c0,8.867,1.298,12.65,4.34,12.65h2.554l1.055,9.052l0.182,0.288c0.32,0.509,1.071,1.7,9.399,1.7c8.222,0,9.156-1.17,9.462-1.555     l0.268-0.336L48.216,65h2.555c0.672,0,1.255-0.197,1.762-0.581l0.307,2.632l0.182,0.288c0.321,0.509,1.072,1.7,9.399,1.7h0.59     c7.676-0.055,8.576-1.184,8.872-1.555l0.268-0.336L73.215,58h2.554c3.042,0,4.34-3.783,4.34-12.65     C80.11,40.101,69.403,39.169,63.039,39.081z M50.771,62h-2.205l0.555-4.756l-2.979-0.348l-0.75,6.43l-1.07,9.192     c-0.795,0.205-2.705,0.521-6.9,0.521c-4.124,0-5.975-0.311-6.737-0.508l-1.073-9.206l-0.75-6.43l-2.979,0.348l0.556,4.765     l-2.125,0.011c-0.058-0.035-1.421-0.976-1.421-9.671c0-0.085,0-0.284,0.311-0.595c1.985-1.979,9.753-2.707,14.215-2.685h0.009     c2.221,0.01,5.247,0.182,7.989,0.589c0.976,0.15,1.875,0.32,2.659,0.511c0.927,0.225,1.709,0.474,2.332,0.736     c0.015,0.007,0.029,0.013,0.044,0.02c0.155,0.066,0.294,0.134,0.429,0.202c0.375,0.197,0.693,0.408,0.924,0.639     c0.307,0.306,0.307,0.5,0.307,0.583C52.11,61.045,50.747,61.985,50.771,62z M75.77,55h-2.205l0.555-4.756l-1.49-0.174     l-1.49-0.174l-0.75,6.43l-1.071,9.193c-0.758,0.195-2.527,0.493-6.32,0.521h-0.58c-4.124,0-5.976-0.311-6.738-0.508l-0.847-7.267     c0.091-0.813,0.16-1.702,0.205-2.675c0.001-0.013,0.002-0.024,0.002-0.037c0.02-0.442,0.035-0.904,0.046-1.38     c0.001-0.058,0.004-0.112,0.005-0.171c0.011-0.531,0.017-1.08,0.017-1.653c0-0.234-0.029-0.457-0.07-0.674     c-0.008-0.043-0.018-0.086-0.028-0.129c-0.047-0.206-0.11-0.406-0.193-0.597c-0.007-0.016-0.011-0.032-0.018-0.048     c-0.085-0.19-0.189-0.371-0.308-0.546c-0.061-0.094-0.132-0.184-0.203-0.274c-0.04-0.05-0.082-0.099-0.124-0.147     c-0.082-0.097-0.152-0.198-0.245-0.291c-0.624-0.622-1.507-1.134-2.54-1.559c-0.028-0.012-0.057-0.024-0.085-0.036     c-0.082-0.033-0.165-0.065-0.249-0.097c-0.95-0.372-2.013-0.675-3.138-0.917c-0.012-0.528-0.02-1.084-0.02-1.684     c0-0.085,0-0.284,0.311-0.595c1.968-1.963,9.64-2.685,14.101-2.685c0.038,0,0.077,0,0.114,0l0.004-0.006v0.006     c0.011,0,0.205,0,0.559,0.01c8.453,0.117,14.131,1.785,14.131,3.27C77.11,54.045,75.747,54.985,75.77,55z"></path><g><path d="M37.9,44.84c-3.833,0-6.95-3.113-6.95-6.939c0-3.832,3.118-6.95,6.95-6.95c3.827,0,6.94,3.118,6.94,6.95      C44.84,41.727,41.727,44.84,37.9,44.84z M37.9,33.95c-2.178,0-3.95,1.772-3.95,3.95c0,2.172,1.772,3.939,3.95,3.939      c2.172,0,3.94-1.768,3.94-3.939C41.84,35.723,40.073,33.95,37.9,33.95z"></path></g></g></g><g><path d="M63.16,23.963c-0.114-0.013-0.206-0.013-0.26-0.013c-3.833,0-6.95,3.118-6.95,6.95c0,3.826,3.118,6.939,6.95,6.939    c0.045,0,0.128,0,0.235-0.013c3.708-0.112,6.705-3.195,6.705-6.927C69.84,27.119,66.914,24.091,63.16,23.963z M62.979,34.83    l-0.229,0.003l-0.01,0.004c-2.104-0.084-3.79-1.817-3.79-3.937c0-2.146,1.72-3.897,3.865-3.949L63,26.96    c2.153,0.043,3.84,1.774,3.84,3.94C66.84,33.038,65.108,34.802,62.979,34.83z"></path><path d="M38.161,30.963c-0.114-0.013-0.206-0.013-0.26-0.013c-3.833,0-6.95,3.118-6.95,6.95c0,3.826,3.118,6.939,6.95,6.939    c0.044,0,0.128,0,0.235-0.013c3.708-0.112,6.705-3.195,6.705-6.927C44.84,34.119,41.914,31.091,38.161,30.963z M37.98,41.83    l-0.225,0.003l-0.011,0.004c-2.106-0.082-3.793-1.816-3.793-3.937c0-2.146,1.72-3.897,3.865-3.949L38,33.96    c2.153,0.043,3.84,1.774,3.84,3.94C41.84,40.038,40.109,41.802,37.98,41.83z"></path></g><g><polygon points="37.016,17.914 40.604,21.5 24.415,21.5 24.415,24.5 40.604,24.5 37.016,28.086 41.335,28.086 46.421,23     41.335,17.914   "></polygon><polygon points="73.671,75.5 57.481,75.5 61.069,71.914 56.751,71.914 51.665,77 56.751,82.086 61.069,82.086 57.481,78.5     73.671,78.5   "></polygon></g></g></svg>