<svg xmlns="http://www.w3.org/2000/svg" xmlns:xlink="http://www.w3.org/1999/xlink" version="1.1" x="0px" y="0px" viewBox="0 0 100 100" enable-background="new 0 0 100 100" xml:space="preserve"><g><path d="M52.5,29.8L52.5,29.8C52.5,29.8,52.5,29.8,52.5,29.8C52.5,29.8,52.5,29.8,52.5,29.8z M52.8,29.7c0.3-0.1,0.6-0.3,0.9-0.4   v-0.1C53.3,29.4,53,29.6,52.8,29.7z M53.7,27.7C53.7,27.7,53.7,27.8,53.7,27.7L53.7,27.7C53.7,27.7,53.7,27.7,53.7,27.7z M52.2,26   h-0.5c0.3,0,0.5,0.1,0.8,0.2C52.4,26.1,52.3,26,52.2,26z M50.9,29.8C50.9,29.8,50.9,29.8,50.9,29.8L50.9,29.8   C50.9,29.8,50.9,29.8,50.9,29.8z M49.7,29.1v0.1c0.3,0.2,0.6,0.3,0.9,0.4C50.5,29.6,50.1,29.4,49.7,29.1z M49.7,27.8L49.7,27.8   C49.7,27.8,49.7,27.7,49.7,27.8C49.7,27.7,49.7,27.7,49.7,27.8z"></path><path d="M88,26H60.5c17.1-7.6,27.5-7.4,27.6-7.4c1.1,0,2-0.8,2.1-1.9c0-1.1-0.8-2-1.9-2.1c-0.4,0-8.5-0.2-22,4.8   c3.5-3.6,5.2-6.7,5.2-9.4c0-1.7-0.8-4-3.9-5.7c-1.4-0.7-2.7-1.1-4.1-1.1c-6.2,0-9.7,7.9-11.6,14.7C49.8,11,46.2,3.2,40.1,3.2   c-1.3,0-2.7,0.4-4.1,1.1c-3.1,1.7-3.9,4-3.9,5.7c-0.1,2.7,1.6,5.8,5.2,9.4c-13.6-5-21.6-4.8-22-4.8c-1.1,0-2,1-1.9,2.1   c0,1.1,1,2,2.1,1.9c0.1,0,10.4-0.2,27.6,7.4H15.5c-3.9,0-7,3.1-7,7v9.2c0,3.9,3.1,7,7,7H18v39.7c0,4.4,3.6,8,8,8h49.5   c4.4,0,8-3.6,8-8V49.2H88c3.9,0,7-3.1,7-7V33C95,29.1,91.8,26,88,26z M63.3,7.2c0.7,0,1.4,0.2,2.2,0.6c1.8,1,1.8,1.9,1.8,2.2   c0.1,3.5-6.6,9.4-12.9,13.8C55.9,16.6,59,7.2,63.3,7.2z M53.7,27.8L53.7,27.8C53.7,27.8,53.7,27.7,53.7,27.8   C53.7,27.7,53.7,27.7,53.7,27.8z M49.7,27.8C49.7,27.7,49.7,27.7,49.7,27.8C49.7,27.7,49.7,27.8,49.7,27.8L49.7,27.8z M36.1,10   c0-0.3,0-1.3,1.8-2.2c0.8-0.4,1.5-0.6,2.2-0.6c4.4,0,7.5,9.5,8.9,16.7C42.7,19.5,36,13.5,36.1,10z M49.7,92.8H26c-2.2,0-4-1.8-4-4   V49.2h27.8V92.8z M49.7,45.2H15.5c-1.6,0-3-1.3-3-3V33c0-1.7,1.4-3,3-3h34.2V45.2z M50.6,29.7 M52.5,29.8   C52.5,29.8,52.5,29.8,52.5,29.8 M79.5,88.8c0,2.2-1.8,4-4,4H53.7V49.2h25.8V88.8z M91,42.2c0,1.7-1.3,3-3,3H53.7V30H88   c1.7,0,3,1.3,3,3V42.2z"></path></g></svg>