<svg xmlns="http://www.w3.org/2000/svg" xmlns:xlink="http://www.w3.org/1999/xlink" version="1.1" x="0px" y="0px" viewBox="0 0 400 400" enable-background="new 0 0 400 400" xml:space="preserve"><path d="M174.649,107.885L200.5,91.334l22.933,14.683c1.271-0.931,2.901-1.508,4.9-1.517c7.071-0.031,14.479-0.605,21.771-0.404  l-45.291-28.999c-2.63-1.684-5.999-1.683-8.627,0l-52.507,33.619c9.118-0.324,18.236-0.637,27.32-1.549  C172.299,107.037,173.536,107.324,174.649,107.885z"></path><path d="M375.313,184.263l-50.635-32.419c0.025,5.75-1.145,11.546-3.147,16.983L363,195.377V360H38V195.377l39.029-24.989  c-0.625-1.144-1.041-2.498-1.196-4.055c-0.447-4.489-0.856-8.975-1.102-13.472l-49.044,31.401C23.39,185.733,22,188.272,22,191v177  c0,4.418,3.582,8,8,8h341c4.418,0,8-3.582,8-8V191C379,188.272,377.61,185.733,375.313,184.263z"></path><path d="M77.01,212.989c2.293,1.801,4.643,3.521,7.032,5.184l-0.516-43.158l49.599-0.595c-4.151,6.123-9.52,13.309-16.485,21.627  l6.858,29.041c0,0,11.892-17.203,23.626-35.894l0.719,60.098c7.585,3.199,14.98,6.771,21.816,11.427l-0.971-81.061  c15.895,21.948,35.567,46.331,35.567,46.331l2.469-29.735c-7.558-8.723-13.504-16.188-18.187-22.497l128.601-1.537l0.597,49.914  c3.229-1.919,6.421-3.907,9.563-5.987l-1.093-91.407c-0.148-12.395-10.354-22.357-22.746-22.208l-207.925,2.486  c-12.395,0.149-22.357,10.353-22.209,22.748l1,83.621C75.262,211.789,76.168,212.328,77.01,212.989z M303.572,112.163  c7.082-0.085,12.914,5.608,12.998,12.691l0.309,25.69l-112.026,1.34c-0.161-6.471-0.783-15.761-2.844-22.848  c0,0-21.76-1.258-33.843,6.908l-0.265-22.159L303.572,112.163z M95.649,114.65l50.577-0.604l0.281,23.561  c-13.536-4.755-33.415,1.973-33.415,1.973c-0.124,4.174,0.309,8.892,0.958,13.391l-30.785,0.368l-0.307-25.69  C82.875,120.566,88.568,114.735,95.649,114.65z"></path><path d="M371,376H30c-4.418,0-8-3.582-8-8V191c0-2.794,1.458-5.386,3.846-6.837c2.386-1.451,5.359-1.552,7.84-0.264L200.5,270.486  l166.814-86.587c2.479-1.288,5.451-1.188,7.84,0.264c2.388,1.451,3.846,4.043,3.846,6.837v177C379,372.418,375.418,376,371,376z   M38,360h325V204.166l-158.814,82.435c-2.312,1.199-5.061,1.199-7.371,0L38,204.166V360z"></path></svg>