<svg xmlns="http://www.w3.org/2000/svg" xmlns:xlink="http://www.w3.org/1999/xlink" version="1.1" x="0px" y="0px" viewBox="0 0 90 90" enable-background="new 0 0 90 90" xml:space="preserve"><g><path d="M45.472,32.649c-0.244,0-0.489-0.008-0.74-0.022c-3.954-0.228-7.016-2.001-8.622-4.992   c-1.846-3.442-1.566-8.364,0.699-12.246c1.752-3.002,2.642-4.197,3.872-5.854c0.846-1.138,1.897-2.553,3.57-5.018l1.492-2.198   l1.609,2.112c0.223,0.292,5.477,7.189,7.574,10.116c2.375,3.312,2.602,8.002,0.576,11.945   C53.523,30.348,49.772,32.649,45.472,32.649z M45.906,8.845c-0.901,1.277-1.577,2.188-2.158,2.97c-1.2,1.615-1.992,2.683-3.638,5.5   c-1.596,2.733-1.855,6.234-0.633,8.513c0.981,1.828,2.823,2.832,5.474,2.985c3.142,0.183,5.742-1.318,7.152-4.067   c1.356-2.64,1.243-5.845-0.282-7.972C50.466,14.883,47.676,11.184,45.906,8.845z"></path></g><g><path d="M45.878,38.402c-1.055,0-1.91-0.856-1.91-1.911V24.016c0-1.056,0.855-1.911,1.91-1.911c1.056,0,1.911,0.855,1.911,1.911   v12.476C47.789,37.546,46.934,38.402,45.878,38.402z"></path></g><g><path d="M60.647,86.277H29.007c-2.637,0-4.783-2.145-4.783-4.782c0-2.538,1.985-4.619,4.485-4.774l0.13-39.389l0.086-0.276   c0.07-0.224,1.778-5.478,7.236-5.478c0.94,0,1.935,0.167,2.956,0.498c3.584,1.158,5.972,2.391,7.713,3.292   c1.483,0.765,2.461,1.271,3.238,1.271c0.489,0,1.278-0.172,3.052-1.503c1.974-1.479,4.027-1.425,5.443,0   c2.582,2.596,2.756,9.73,2.709,18.095l-0.006,1.741c0,5.454,0.009,16.864,0.014,21.781c2.339,0.31,4.15,2.317,4.15,4.741   C65.431,84.133,63.284,86.277,60.647,86.277z M29.007,80.533c-0.529,0-0.961,0.432-0.961,0.962s0.432,0.961,0.961,0.961h31.641   c0.529,0,0.961-0.431,0.961-0.961s-0.432-0.962-0.961-0.962h-3.187l-0.001-1.909c-0.003-2.784-0.016-17.282-0.016-23.651   l0.007-1.762c0.019-3.437,0.074-13.764-1.53-15.324c-0.092,0.038-0.26,0.122-0.508,0.308c-2.117,1.589-3.716,2.267-5.345,2.267   c-1.705,0-3.156-0.75-4.992-1.698c-1.715-0.886-3.85-1.989-7.135-3.051c-0.641-0.207-1.24-0.312-1.78-0.312   c-2.227,0-3.223,1.907-3.503,2.572l-0.141,42.561H29.007z"></path></g></svg>