<svg xmlns="http://www.w3.org/2000/svg" xmlns:xlink="http://www.w3.org/1999/xlink" version="1.1" x="0px" y="0px" viewBox="0 0 100 125" enable-background="new 0 0 100 100" xml:space="preserve"><g><path fill="#000000" d="M25.841,36.447l-1.596-1.283c0-2.759-0.995-0.801-3.947-0.801h-0.267c-2.952,0-3.947-1.958-3.947,0.801   l-1.597,1.293L5.618,46.981c-0.925,1.082-0.797,2.708,0.284,3.631c0.486,0.416,1.08,0.618,1.672,0.618   c0.726,0,1.449-0.306,1.959-0.901l4.313-5.196l-0.766,10.39h1.844v0.184l-1.881,20.139c-0.133,1.418,0.908,2.673,2.325,2.806   c0.081,0.006,0.162,0.011,0.243,0.011c1.313,0,2.436-1.002,2.561-2.337l1.82-19.495h0.342l1.82,19.495   c0.125,1.335,1.248,2.337,2.561,2.337c0.081,0,0.161-0.005,0.243-0.011c1.416-0.133,2.457-1.388,2.325-2.806l-1.88-20.139v-0.184   h1.843L26.48,45.124l4.452,5.209c0.51,0.596,1.232,0.901,1.959,0.901c0.592,0,1.187-0.203,1.672-0.618   c1.082-0.924,1.21-2.55,0.284-3.631L25.841,36.447z"/><circle fill="#000000" cx="20.233" cy="26.991" r="5.652"/><path fill="#000000" d="M44.916,26.608c0,0,1.847-0.37,3.326-1.279c-0.163,0.525-0.25,1.083-0.25,1.662   c0,3.121,2.531,5.651,5.653,5.651c3.12,0,5.652-2.53,5.652-5.651s-2.532-5.651-5.652-5.651c-1.839,0-3.468,0.882-4.5,2.243   c-0.866-0.628-2.664-1.515-4.253,0.436c0,0-1.323,1.679-3.423,0.187C41.468,24.203,41.97,27.23,44.916,26.608z"/><path fill="#000000" d="M59.337,36.447l-1.596-1.283c0-2.759-0.996-0.801-3.947-0.801h-0.146h-0.006h-0.146   c-2.951,0-3.948-1.958-3.948,0.801l-1.596,1.283l-9.007,10.538c-0.926,1.081-0.797,2.707,0.284,3.631   c0.486,0.416,1.08,0.618,1.672,0.618c0.726,0,1.449-0.306,1.959-0.901l4.452-5.209l-2.164,17.391h3.241v0.181l-1.882,13.149   c-0.13,1.418,0.91,2.673,2.325,2.806c0.082,0.006,0.163,0.011,0.243,0.011c1.313,0,2.438-1.002,2.563-2.337l1.819-12.505h0.184   h0.006h0.186l1.818,12.505c0.126,1.335,1.248,2.337,2.563,2.337c0.08,0,0.16-0.005,0.242-0.011   c1.416-0.133,2.457-1.388,2.324-2.806l-1.881-13.149v-0.181h3.24l-2.163-17.391l4.452,5.209c0.511,0.596,1.232,0.901,1.959,0.901   c0.593,0,1.188-0.203,1.674-0.618c1.081-0.924,1.209-2.55,0.283-3.631L59.337,36.447z"/><path fill="#000000" d="M76.296,38.176c0,0,1.438-0.288,2.588-0.995c-0.127,0.409-0.195,0.843-0.195,1.292   c0,2.428,1.971,4.396,4.396,4.396c2.428,0,4.396-1.969,4.396-4.396c0-2.427-1.969-4.395-4.396-4.395   c-1.432,0-2.697,0.686-3.5,1.744c-0.674-0.489-2.071-1.178-3.31,0.337c0,0-1.026,1.307-2.661,0.146   C73.616,36.305,74.005,38.659,76.296,38.176z"/><path fill="#000000" d="M94.52,54.024l-7.006-8.194l-1.242-0.999c0-2.146-0.772-0.622-3.069-0.622h-0.113h-0.006H82.97   c-2.295,0-3.07-1.523-3.07,0.622l-1.24,0.999l-7.006,8.194c-0.72,0.841-0.619,2.105,0.221,2.824c0.379,0.322,0.84,0.48,1.301,0.48   c0.564,0,1.127-0.238,1.523-0.701l3.465-4.053l-1.685,13.525h2.521v0.142L77.536,76.47c-0.103,1.104,0.705,2.078,1.808,2.183   c0.063,0.005,0.127,0.009,0.19,0.009c1.021,0,1.895-0.779,1.99-1.816l1.416-9.728h0.143h0.006h0.144l1.415,9.728   c0.098,1.037,0.971,1.816,1.992,1.816c0.063,0,0.125-0.004,0.188-0.009c1.102-0.104,1.912-1.079,1.81-2.183l-1.464-10.228v-0.142   h2.521l-1.683-13.525l3.462,4.053c0.396,0.463,0.96,0.701,1.523,0.701c0.461,0,0.924-0.158,1.303-0.48   C95.139,56.13,95.239,54.865,94.52,54.024z"/></g><text x="0" y="115" fill="#000000" font-size="5px" font-weight="bold" font-family="'Helvetica Neue', Helvetica, Arial-Unicode, Arial, Sans-serif">Created by TukTuk Design</text><text x="0" y="120" fill="#000000" font-size="5px" font-weight="bold" font-family="'Helvetica Neue', Helvetica, Arial-Unicode, Arial, Sans-serif">from the Noun Project</text></svg>